<?xml version="1.0" standalone="no"?><svg xmlns="http://www.w3.org/2000/svg" viewBox="0 0 1440 320"><path fill="#8A2BE2" fill-opacity="1" d="M0,32L18.5,26.7C36.9,21,74,11,111,42.7C147.7,75,185,149,222,160C258.5,171,295,117,332,90.7C369.2,64,406,64,443,74.7C480,85,517,107,554,112C590.8,117,628,107,665,85.3C701.5,64,738,32,775,32C812.3,32,849,64,886,80C923.1,96,960,96,997,133.3C1033.8,171,1071,245,1108,240C1144.6,235,1182,149,1218,133.3C1255.4,117,1292,171,1329,192C1366.2,213,1403,203,1422,197.3L1440,192L1440,0L1421.5,0C1403.1,0,1366,0,1329,0C1292.3,0,1255,0,1218,0C1181.5,0,1145,0,1108,0C1070.8,0,1034,0,997,0C960,0,923,0,886,0C849.2,0,812,0,775,0C738.5,0,702,0,665,0C627.7,0,591,0,554,0C516.9,0,480,0,443,0C406.2,0,369,0,332,0C295.4,0,258,0,222,0C184.6,0,148,0,111,0C73.8,0,37,0,18,0L0,0Z"></path></svg>