<?xml version="1.0" standalone="no"?><svg xmlns="http://www.w3.org/2000/svg" viewBox="0 0 1440 320"><path fill="#8A2BE2" fill-opacity="1" d="M0,0L18.5,37.3C36.9,75,74,149,111,176C147.7,203,185,181,222,154.7C258.5,128,295,96,332,112C369.2,128,406,192,443,192C480,192,517,128,554,128C590.8,128,628,192,665,234.7C701.5,277,738,299,775,288C812.3,277,849,235,886,218.7C923.1,203,960,213,997,186.7C1033.8,160,1071,96,1108,80C1144.6,64,1182,96,1218,122.7C1255.4,149,1292,171,1329,176C1366.2,181,1403,171,1422,165.3L1440,160L1440,0L1421.5,0C1403.1,0,1366,0,1329,0C1292.3,0,1255,0,1218,0C1181.5,0,1145,0,1108,0C1070.8,0,1034,0,997,0C960,0,923,0,886,0C849.2,0,812,0,775,0C738.5,0,702,0,665,0C627.7,0,591,0,554,0C516.9,0,480,0,443,0C406.2,0,369,0,332,0C295.4,0,258,0,222,0C184.6,0,148,0,111,0C73.8,0,37,0,18,0L0,0Z"></path></svg>